<svg width="36" height="36" viewBox="0 0 36 36" fill="none" xmlns="http://www.w3.org/2000/svg">
<rect x="0.5" y="0.5" width="35" height="35" rx="17.5" stroke="url(#paint0_linear_139_8132)"/>
<rect x="0.5" y="0.5" width="35" height="35" rx="17.5" stroke="url(#paint1_linear_139_8132)"/>
<path d="M18 14.25C16.9645 14.25 16.125 15.0895 16.125 16.125C16.125 17.1605 16.9645 18 18 18C19.0355 18 19.875 17.1605 19.875 16.125C19.875 15.0895 19.0355 14.25 18 14.25Z" fill="#A685FA"/>
<path fill-rule="evenodd" clip-rule="evenodd" d="M9.25 12.0625C9.25 11.1996 9.94956 10.5 10.8125 10.5H25.1875C26.0504 10.5 26.75 11.1996 26.75 12.0625V20.1875C26.75 21.0504 26.0504 21.75 25.1875 21.75H10.8125C9.94955 21.75 9.25 21.0504 9.25 20.1875V12.0625ZM14.875 16.125C14.875 14.3991 16.2741 13 18 13C19.7259 13 21.125 14.3991 21.125 16.125C21.125 17.8509 19.7259 19.25 18 19.25C16.2741 19.25 14.875 17.8509 14.875 16.125ZM23.625 15.5C23.2798 15.5 23 15.7798 23 16.125V16.1313C23 16.4764 23.2798 16.7563 23.625 16.7563H23.6313C23.9764 16.7563 24.2563 16.4764 24.2563 16.1313V16.125C24.2563 15.7798 23.9764 15.5 23.6313 15.5H23.625ZM11.75 16.125C11.75 15.7798 12.0298 15.5 12.375 15.5H12.3813C12.7264 15.5 13.0063 15.7798 13.0063 16.125V16.1313C13.0063 16.4764 12.7264 16.7563 12.3813 16.7563H12.375C12.0298 16.7563 11.75 16.4764 11.75 16.1313V16.125Z" fill="#A685FA"/>
<path d="M9.875 23C9.52982 23 9.25 23.2798 9.25 23.625C9.25 23.9702 9.52982 24.25 9.875 24.25C14.375 24.25 18.7335 24.8518 22.8748 25.9791C23.867 26.2491 24.875 25.514 24.875 24.4626V23.625C24.875 23.2798 24.5952 23 24.25 23H9.875Z" fill="#A685FA"/>
<defs>
<linearGradient id="paint0_linear_139_8132" x1="-3.91936" y1="2.03226" x2="35.8548" y2="36" gradientUnits="userSpaceOnUse">
<stop stop-color="#A685FA"/>
<stop offset="0.323723" stop-color="#A685FA" stop-opacity="0"/>
</linearGradient>
<linearGradient id="paint1_linear_139_8132" x1="43.1129" y1="44.129" x2="1.30645" y2="14.5161" gradientUnits="userSpaceOnUse">
<stop stop-color="#A685FA"/>
<stop offset="0.576615" stop-color="#A685FA" stop-opacity="0"/>
</linearGradient>
</defs>
</svg>
