<svg width="61" height="60" viewBox="0 0 61 60" fill="none" xmlns="http://www.w3.org/2000/svg">
<rect x="0.5" width="60" height="60" rx="30" fill="#141414"/>
<path d="M37.5585 21.6666H23.4418C23.2831 21.6644 23.1255 21.6935 22.9781 21.7522C22.8307 21.8109 22.6962 21.8981 22.5825 22.0087C22.4687 22.1194 22.3779 22.2514 22.3151 22.3971C22.2524 22.5429 22.219 22.6996 22.2168 22.8583V37.1416C22.219 37.3003 22.2524 37.457 22.3151 37.6028C22.3779 37.7486 22.4687 37.8805 22.5825 37.9912C22.6962 38.1019 22.8307 38.189 22.9781 38.2477C23.1255 38.3064 23.2831 38.3355 23.4418 38.3333H37.5585C37.7171 38.3355 37.8747 38.3064 38.0222 38.2477C38.1696 38.189 38.304 38.1019 38.4178 37.9912C38.5316 37.8805 38.6224 37.7486 38.6851 37.6028C38.7479 37.457 38.7813 37.3003 38.7835 37.1416V22.8583C38.7813 22.6996 38.7479 22.5429 38.6851 22.3971C38.6224 22.2514 38.5316 22.1194 38.4178 22.0087C38.304 21.8981 38.1696 21.8109 38.0222 21.7522C37.8747 21.6935 37.7171 21.6644 37.5585 21.6666ZM27.2418 35.6166H24.7418V28.1166H27.2418V35.6166ZM25.9918 27.0666C25.647 27.0666 25.3164 26.9297 25.0726 26.6859C24.8288 26.4421 24.6918 26.1114 24.6918 25.7666C24.6918 25.4218 24.8288 25.0912 25.0726 24.8474C25.3164 24.6036 25.647 24.4666 25.9918 24.4666C26.1749 24.4459 26.3603 24.464 26.5359 24.5199C26.7114 24.5757 26.8732 24.668 27.0107 24.7908C27.1481 24.9135 27.2581 25.0639 27.3334 25.232C27.4086 25.4002 27.4476 25.5824 27.4476 25.7666C27.4476 25.9509 27.4086 26.133 27.3334 26.3012C27.2581 26.4694 27.1481 26.6198 27.0107 26.7425C26.8732 26.8652 26.7114 26.9575 26.5359 27.0134C26.3603 27.0692 26.1749 27.0874 25.9918 27.0666ZM36.2585 35.6166H33.7585V31.5916C33.7585 30.5833 33.4001 29.925 32.4918 29.925C32.2107 29.927 31.937 30.0152 31.7075 30.1776C31.478 30.34 31.3039 30.5688 31.2085 30.8333C31.1433 31.0292 31.115 31.2354 31.1251 31.4416V35.6083H28.6251C28.6251 35.6083 28.6251 28.7916 28.6251 28.1083H31.1251V29.1666C31.3522 28.7725 31.6826 28.4479 32.0805 28.2276C32.4784 28.0074 32.9289 27.8998 33.3835 27.9166C35.0501 27.9166 36.2585 28.9916 36.2585 31.3V35.6166Z" fill="white"/>
</svg>
