<svg width="61" height="60" viewBox="0 0 61 60" fill="none" xmlns="http://www.w3.org/2000/svg">
<rect x="0.5" width="60" height="60" rx="30" fill="#141414"/>
<path d="M38.8337 24.8333C38.2073 25.105 37.5448 25.2847 36.867 25.3666C37.5821 24.9394 38.1181 24.2672 38.3753 23.4749C37.7033 23.875 36.9676 24.1568 36.2003 24.3083C35.6874 23.7521 35.0045 23.3818 34.2585 23.2556C33.5125 23.1294 32.7458 23.2544 32.0785 23.6109C31.4112 23.9674 30.8811 24.5354 30.5714 25.2256C30.2616 25.9159 30.1897 26.6894 30.367 27.4249C29.0082 27.3562 27.679 27.0024 26.4659 26.3865C25.2527 25.7706 24.1827 24.9063 23.3253 23.8499C23.0246 24.3751 22.8666 24.9698 22.867 25.5749C22.8659 26.1369 23.0038 26.6904 23.2685 27.1862C23.5331 27.682 23.9162 28.1047 24.3837 28.4166C23.8403 28.4018 23.3086 28.256 22.8337 27.9916V28.0333C22.8377 28.8207 23.1137 29.5825 23.6148 30.1899C24.1159 30.7973 24.8114 31.213 25.5837 31.3666C25.2864 31.4571 24.9777 31.5048 24.667 31.5083C24.4519 31.5058 24.2373 31.4862 24.0253 31.4499C24.2453 32.1273 24.6708 32.7192 25.2429 33.1434C25.8149 33.5676 26.505 33.8029 27.217 33.8166C26.0147 34.7627 24.5302 35.279 23.0003 35.2833C22.7218 35.2842 22.4434 35.2675 22.167 35.2333C23.729 36.2418 25.5493 36.7772 27.4087 36.7749C28.6917 36.7883 29.9646 36.5458 31.1529 36.0617C32.3412 35.5775 33.4212 34.8615 34.3297 33.9553C35.2381 33.0492 35.957 31.9711 36.4441 30.784C36.9313 29.5969 37.177 28.3247 37.167 27.0416C37.167 26.8999 37.167 26.7499 37.167 26.5999C37.8209 26.1123 38.3849 25.5145 38.8337 24.8333Z" fill="white"/>
</svg>
