<svg width="61" height="60" viewBox="0 0 61 60" fill="none" xmlns="http://www.w3.org/2000/svg">
<rect x="0.5" width="60" height="60" rx="30" fill="#141414"/>
<path d="M39.6669 28.0917C39.7081 26.8989 39.4472 25.715 38.9085 24.65C38.543 24.213 38.0358 23.9181 37.4752 23.8167C35.1565 23.6063 32.8281 23.52 30.5002 23.5583C28.1807 23.5183 25.8608 23.6017 23.5502 23.8083C23.0934 23.8914 22.6706 24.1057 22.3335 24.425C21.5835 25.1167 21.5002 26.3 21.4169 27.3C21.2959 29.098 21.2959 30.902 21.4169 32.7C21.441 33.2628 21.5248 33.8215 21.6669 34.3667C21.7673 34.7875 21.9706 35.1769 22.2585 35.5C22.5979 35.8362 23.0305 36.0627 23.5002 36.15C25.2968 36.3718 27.107 36.4637 28.9169 36.425C31.8335 36.4667 34.3919 36.425 37.4169 36.1917C37.8981 36.1097 38.3428 35.8829 38.6919 35.5417C38.9252 35.3082 39.0994 35.0226 39.2002 34.7083C39.4982 33.7938 39.6446 32.8367 39.6335 31.875C39.6669 31.4083 39.6669 28.5917 39.6669 28.0917ZM28.6169 32.375V27.2167L33.5502 29.8083C32.1669 30.575 30.3419 31.4417 28.6169 32.375Z" fill="white"/>
</svg>
